<svg width="326" height="79" viewBox="0 0 326 79" fill="none" xmlns="http://www.w3.org/2000/svg">
<path d="M84.032 68V26.784H112.064V32.224H91.008V44.704H109.696V50.08H91.008V68H84.032ZM119.217 31.328V25.568H126.833V31.328H119.217ZM119.793 68V42.976H115.185L115.825 37.664H126.769V68H119.793ZM134.907 68V37.664H141.307L141.691 41.184C143.142 40.2453 144.87 39.392 146.875 38.624C148.88 37.856 150.864 37.3227 152.827 37.024V42.336C151.632 42.5493 150.331 42.8693 148.923 43.296C147.558 43.68 146.256 44.128 145.019 44.64C143.782 45.1093 142.736 45.6 141.883 46.112V68H134.907ZM172.017 68.64C166.726 68.64 162.63 67.3387 159.729 64.736C156.828 62.1333 155.377 58.144 155.377 52.768C155.377 47.904 156.614 44.064 159.089 41.248C161.564 38.432 165.318 37.024 170.353 37.024C174.961 37.024 178.417 38.24 180.721 40.672C183.068 43.0613 184.241 46.1547 184.241 49.952V55.584H162.033C162.374 58.528 163.441 60.5547 165.233 61.664C167.025 62.7733 169.756 63.328 173.425 63.328C174.961 63.328 176.54 63.1787 178.161 62.88C179.782 62.5813 181.19 62.1973 182.385 61.728V66.848C181.02 67.4453 179.441 67.8933 177.649 68.192C175.9 68.4907 174.022 68.64 172.017 68.64ZM162.033 51.04H178.097V48.928C178.097 46.8373 177.521 45.216 176.369 44.064C175.217 42.8693 173.276 42.272 170.545 42.272C167.302 42.272 165.062 42.976 163.825 44.384C162.63 45.792 162.033 48.0107 162.033 51.04ZM191.032 68V26.784H207.736C213.837 26.784 218.36 28.4053 221.304 31.648C224.248 34.848 225.72 40.1813 225.72 47.648C225.72 54.688 224.269 59.8507 221.368 63.136C218.467 66.3787 213.923 68 207.736 68H191.032ZM198.008 62.624H206.648C209.336 62.624 211.576 62.24 213.368 61.472C215.16 60.6613 216.504 59.168 217.4 56.992C218.296 54.816 218.744 51.7013 218.744 47.648C218.744 43.5947 218.339 40.4587 217.528 38.24C216.717 36.0213 215.416 34.464 213.624 33.568C211.875 32.672 209.549 32.224 206.648 32.224H198.008V62.624ZM241.129 68.64C239.209 68.64 237.417 68.2987 235.753 67.616C234.132 66.9333 232.83 65.9093 231.849 64.544C230.868 63.136 230.377 61.408 230.377 59.36C230.377 56.4587 231.358 54.1333 233.321 52.384C235.326 50.592 238.398 49.696 242.537 49.696H252.265V48.352C252.265 46.9013 252.03 45.7493 251.561 44.896C251.134 44.0427 250.324 43.424 249.129 43.04C247.977 42.656 246.27 42.464 244.009 42.464C240.425 42.464 237.076 42.9973 233.961 44.064V38.88C235.326 38.3253 236.99 37.8773 238.953 37.536C240.916 37.1947 243.028 37.024 245.289 37.024C249.726 37.024 253.097 37.92 255.401 39.712C257.748 41.504 258.921 44.4267 258.921 48.48V68H252.969L252.521 64.928C251.284 66.1227 249.748 67.04 247.913 67.68C246.121 68.32 243.86 68.64 241.129 68.64ZM242.985 63.648C245.076 63.648 246.889 63.3067 248.425 62.624C250.004 61.8987 251.284 60.9387 252.265 59.744V54.432H242.665C240.617 54.432 239.124 54.8373 238.185 55.648C237.289 56.416 236.841 57.6107 236.841 59.232C236.841 60.8107 237.374 61.9413 238.441 62.624C239.508 63.3067 241.022 63.648 242.985 63.648ZM276.769 68.64C274.678 68.64 272.673 68.4907 270.753 68.192C268.876 67.8933 267.318 67.5307 266.081 67.104V61.216C267.532 61.7707 269.132 62.1973 270.881 62.496C272.63 62.7947 274.294 62.944 275.873 62.944C278.262 62.944 279.969 62.7307 280.993 62.304C282.017 61.8773 282.529 61.0453 282.529 59.808C282.529 58.912 282.209 58.208 281.569 57.696C280.972 57.184 280.054 56.7147 278.817 56.288C277.622 55.8613 276.086 55.3493 274.209 54.752C272.417 54.1547 270.86 53.5147 269.537 52.832C268.214 52.1067 267.19 51.1893 266.465 50.08C265.74 48.9707 265.377 47.52 265.377 45.728C265.377 42.9547 266.38 40.8213 268.385 39.328C270.39 37.792 273.612 37.024 278.049 37.024C279.798 37.024 281.462 37.152 283.041 37.408C284.62 37.664 285.964 37.984 287.073 38.368V44.192C285.878 43.7227 284.556 43.36 283.105 43.104C281.697 42.848 280.374 42.72 279.137 42.72C276.918 42.72 275.233 42.912 274.081 43.296C272.972 43.68 272.417 44.448 272.417 45.6C272.417 46.7947 272.993 47.648 274.145 48.16C275.34 48.6293 277.238 49.2907 279.841 50.144C282.23 50.8693 284.129 51.6373 285.537 52.448C286.945 53.2587 287.948 54.24 288.545 55.392C289.185 56.5013 289.505 57.952 289.505 59.744C289.505 62.7307 288.417 64.9707 286.241 66.464C284.065 67.9147 280.908 68.64 276.769 68.64ZM296.345 68V24.864H303.321V40.608C304.643 39.5413 306.222 38.688 308.057 38.048C309.891 37.3653 311.961 37.024 314.265 37.024C318.105 37.024 320.942 37.9413 322.777 39.776C324.611 41.6107 325.529 44.4693 325.529 48.352V68H318.617V48.672C318.617 46.3253 318.105 44.6827 317.081 43.744C316.099 42.8053 314.371 42.336 311.897 42.336C310.361 42.336 308.803 42.6773 307.225 43.36C305.646 44 304.345 44.8533 303.321 45.92V68H296.345Z" fill="black"/>
<path d="M0.606445 45.1065L32.4613 57.3387L34.5 79L12.8387 76.9613L0.606445 45.1065Z" fill="#FFC114"/>
<path d="M34.5 79L12.8387 76.9613L0.606445 45.1065" fill="#FFCD50"/>
<path d="M34.5 79L33.2258 66.0032L14.1129 58.6129" fill="#FF9A15"/>
<path d="M68.3935 45.1065L56.1613 76.9613L34.5 79L36.5387 57.3387L68.3935 45.1065Z" fill="#FFC114"/>
<path d="M34.5 79L36.5387 57.3387L68.3935 45.1065" fill="#FFCD50"/>
<path d="M34.5 0L57.3081 51.35L34.5 79L11.6919 51.35L34.5 0Z" fill="#EAAD13"/>
<path d="M34.5 79L11.6919 51.35L34.5 0" fill="#FFCD50"/>
<path d="M34.5 31.4726L20.8661 62.4355L34.5 79L48.1339 62.4355L34.5 31.4726Z" fill="#F9A035"/>
<path d="M34.5 79L48.1339 62.4355L34.5 31.4726" fill="#EF8A11"/>
</svg>
