<svg width="331" height="79" viewBox="0 0 331 79" fill="none" xmlns="http://www.w3.org/2000/svg">
<path d="M89.032 68V26.784H117.064V32.224H96.008V44.704H114.696V50.08H96.008V68H89.032ZM124.217 31.328V25.568H131.833V31.328H124.217ZM124.793 68V42.976H120.185L120.825 37.664H131.769V68H124.793ZM139.907 68V37.664H146.307L146.691 41.184C148.142 40.2453 149.87 39.392 151.875 38.624C153.88 37.856 155.864 37.3227 157.827 37.024V42.336C156.632 42.5493 155.331 42.8693 153.923 43.296C152.558 43.68 151.256 44.128 150.019 44.64C148.782 45.1093 147.736 45.6 146.883 46.112V68H139.907ZM177.017 68.64C171.726 68.64 167.63 67.3387 164.729 64.736C161.828 62.1333 160.377 58.144 160.377 52.768C160.377 47.904 161.614 44.064 164.089 41.248C166.564 38.432 170.318 37.024 175.353 37.024C179.961 37.024 183.417 38.24 185.721 40.672C188.068 43.0613 189.241 46.1547 189.241 49.952V55.584H167.033C167.374 58.528 168.441 60.5547 170.233 61.664C172.025 62.7733 174.756 63.328 178.425 63.328C179.961 63.328 181.54 63.1787 183.161 62.88C184.782 62.5813 186.19 62.1973 187.385 61.728V66.848C186.02 67.4453 184.441 67.8933 182.649 68.192C180.9 68.4907 179.022 68.64 177.017 68.64ZM167.033 51.04H183.097V48.928C183.097 46.8373 182.521 45.216 181.369 44.064C180.217 42.8693 178.276 42.272 175.545 42.272C172.302 42.272 170.062 42.976 168.825 44.384C167.63 45.792 167.033 48.0107 167.033 51.04ZM196.032 68V26.784H212.736C218.837 26.784 223.36 28.4053 226.304 31.648C229.248 34.848 230.72 40.1813 230.72 47.648C230.72 54.688 229.269 59.8507 226.368 63.136C223.467 66.3787 218.923 68 212.736 68H196.032ZM203.008 62.624H211.648C214.336 62.624 216.576 62.24 218.368 61.472C220.16 60.6613 221.504 59.168 222.4 56.992C223.296 54.816 223.744 51.7013 223.744 47.648C223.744 43.5947 223.339 40.4587 222.528 38.24C221.717 36.0213 220.416 34.464 218.624 33.568C216.875 32.672 214.549 32.224 211.648 32.224H203.008V62.624ZM246.129 68.64C244.209 68.64 242.417 68.2987 240.753 67.616C239.132 66.9333 237.83 65.9093 236.849 64.544C235.868 63.136 235.377 61.408 235.377 59.36C235.377 56.4587 236.358 54.1333 238.321 52.384C240.326 50.592 243.398 49.696 247.537 49.696H257.265V48.352C257.265 46.9013 257.03 45.7493 256.561 44.896C256.134 44.0427 255.324 43.424 254.129 43.04C252.977 42.656 251.27 42.464 249.009 42.464C245.425 42.464 242.076 42.9973 238.961 44.064V38.88C240.326 38.3253 241.99 37.8773 243.953 37.536C245.916 37.1947 248.028 37.024 250.289 37.024C254.726 37.024 258.097 37.92 260.401 39.712C262.748 41.504 263.921 44.4267 263.921 48.48V68H257.969L257.521 64.928C256.284 66.1227 254.748 67.04 252.913 67.68C251.121 68.32 248.86 68.64 246.129 68.64ZM247.985 63.648C250.076 63.648 251.889 63.3067 253.425 62.624C255.004 61.8987 256.284 60.9387 257.265 59.744V54.432H247.665C245.617 54.432 244.124 54.8373 243.185 55.648C242.289 56.416 241.841 57.6107 241.841 59.232C241.841 60.8107 242.374 61.9413 243.441 62.624C244.508 63.3067 246.022 63.648 247.985 63.648ZM281.769 68.64C279.678 68.64 277.673 68.4907 275.753 68.192C273.876 67.8933 272.318 67.5307 271.081 67.104V61.216C272.532 61.7707 274.132 62.1973 275.881 62.496C277.63 62.7947 279.294 62.944 280.873 62.944C283.262 62.944 284.969 62.7307 285.993 62.304C287.017 61.8773 287.529 61.0453 287.529 59.808C287.529 58.912 287.209 58.208 286.569 57.696C285.972 57.184 285.054 56.7147 283.817 56.288C282.622 55.8613 281.086 55.3493 279.209 54.752C277.417 54.1547 275.86 53.5147 274.537 52.832C273.214 52.1067 272.19 51.1893 271.465 50.08C270.74 48.9707 270.377 47.52 270.377 45.728C270.377 42.9547 271.38 40.8213 273.385 39.328C275.39 37.792 278.612 37.024 283.049 37.024C284.798 37.024 286.462 37.152 288.041 37.408C289.62 37.664 290.964 37.984 292.073 38.368V44.192C290.878 43.7227 289.556 43.36 288.105 43.104C286.697 42.848 285.374 42.72 284.137 42.72C281.918 42.72 280.233 42.912 279.081 43.296C277.972 43.68 277.417 44.448 277.417 45.6C277.417 46.7947 277.993 47.648 279.145 48.16C280.34 48.6293 282.238 49.2907 284.841 50.144C287.23 50.8693 289.129 51.6373 290.537 52.448C291.945 53.2587 292.948 54.24 293.545 55.392C294.185 56.5013 294.505 57.952 294.505 59.744C294.505 62.7307 293.417 64.9707 291.241 66.464C289.065 67.9147 285.908 68.64 281.769 68.64ZM301.345 68V24.864H308.321V40.608C309.643 39.5413 311.222 38.688 313.057 38.048C314.891 37.3653 316.961 37.024 319.265 37.024C323.105 37.024 325.942 37.9413 327.777 39.776C329.611 41.6107 330.529 44.4693 330.529 48.352V68H323.617V48.672C323.617 46.3253 323.105 44.6827 322.081 43.744C321.099 42.8053 319.371 42.336 316.897 42.336C315.361 42.336 313.803 42.6773 312.225 43.36C310.646 44 309.345 44.8533 308.321 45.92V68H301.345Z" fill="white"/>
<g clip-path="url(#clip0_0_1)">
<path d="M5.60645 45.1065L37.4613 57.3387L39.5 79L17.8387 76.9613L5.60645 45.1065Z" fill="#FFC114"/>
<path d="M39.5 79L17.8387 76.9613L5.60645 45.1065" fill="#FFCD50"/>
<path d="M39.5 79L38.2258 66.0032L19.1129 58.6129" fill="#FF9A15"/>
<path d="M73.3935 45.1065L61.1613 76.9613L39.5 79L41.5387 57.3387L73.3935 45.1065Z" fill="#FFC114"/>
<path d="M39.5 79L41.5387 57.3387L73.3935 45.1065" fill="#FFCD50"/>
<path d="M39.5 0L62.3081 51.35L39.5 79L16.6919 51.35L39.5 0Z" fill="#EAAD13"/>
<path d="M39.5 79L16.6919 51.35L39.5 0" fill="#FFCD50"/>
<path d="M39.5 31.4726L25.8661 62.4355L39.5 79L53.1339 62.4355L39.5 31.4726Z" fill="#F9A035"/>
<path d="M39.5 79L53.1339 62.4355L39.5 31.4726" fill="#EF8A11"/>
</g>
<defs>
<clipPath id="clip0_0_1">
<rect width="79" height="79" fill="white"/>
</clipPath>
</defs>
</svg>
